<svg width="24" height="25" viewBox="0 0 24 25" fill="none" xmlns="http://www.w3.org/2000/svg">
<path d="M13.131 7.86922C13.189 7.92572 13.437 8.13906 13.641 8.3378C14.924 9.50292 17.024 12.5424 17.665 14.1332C17.768 14.3748 17.986 14.9856 18 15.312C18 15.6247 17.928 15.9228 17.782 16.2073C17.578 16.5619 17.257 16.8463 16.878 17.0022C16.615 17.1025 15.828 17.2584 15.814 17.2584C14.953 17.4143 13.554 17.5 12.008 17.5C10.535 17.5 9.193 17.4143 8.319 17.2867C8.305 17.272 7.327 17.1162 6.992 16.9457C6.38 16.633 6 16.0222 6 15.3685V15.312C6.015 14.8863 6.395 13.991 6.409 13.991C7.051 12.4859 9.048 9.51656 10.375 8.32319C10.375 8.32319 10.716 7.98709 10.929 7.84096C11.235 7.61301 11.614 7.5 11.993 7.5C12.416 7.5 12.81 7.62762 13.131 7.86922Z" fill="#24252C"/>
</svg>
