<svg width="32" height="32" viewBox="0 0 32 32" fill="none" xmlns="http://www.w3.org/2000/svg">
<path d="M16 21.625L21.625 16M21.625 16L16 10.375M21.625 16H1M1 7.09004V7.00037C1 4.90017 1 3.84929 1.40873 3.04712C1.76825 2.34151 2.34151 1.76825 3.04712 1.40873C3.84929 1 4.90017 1 7.00037 1H25.0004C27.1006 1 28.1492 1 28.9514 1.40873C29.657 1.76825 30.2321 2.34151 30.5917 3.04712C31 3.8485 31 4.89811 31 6.99421V25.0067C31 27.1028 31 28.1509 30.5917 28.9523C30.2321 29.6579 29.657 30.2321 28.9514 30.5917C28.15 31 27.1019 31 25.0058 31H6.99421C4.89811 31 3.8485 31 3.04712 30.5917C2.34151 30.2321 1.76825 29.6573 1.40873 28.9517C1 28.1496 1 27.1002 1 25V24.9062" stroke="black" stroke-width="2" stroke-linecap="round" stroke-linejoin="round"/>
</svg>
