<svg width="21" height="21" viewBox="0 0 21 21" fill="none" xmlns="http://www.w3.org/2000/svg">
<path d="M10.5 10.5C12.9162 10.5 14.875 8.54125 14.875 6.125C14.875 3.70875 12.9162 1.75 10.5 1.75C8.08375 1.75 6.125 3.70875 6.125 6.125C6.125 8.54125 8.08375 10.5 10.5 10.5Z" stroke="white" stroke-width="1.5" stroke-linecap="round" stroke-linejoin="round"/>
<path d="M16.8087 13.7725L13.7111 16.8701C13.5886 16.9926 13.4749 17.22 13.4487 17.3863L13.2824 18.5675C13.2212 18.9963 13.5187 19.2938 13.9474 19.2325L15.1286 19.0663C15.2949 19.04 15.5312 18.9263 15.6449 18.8038L18.7424 15.7063C19.2761 15.1725 19.5299 14.5513 18.7424 13.7638C17.9636 12.985 17.3424 13.2388 16.8087 13.7725Z" stroke="white" stroke-width="1.5" stroke-miterlimit="10" stroke-linecap="round" stroke-linejoin="round"/>
<path d="M16.3623 14.2188C16.6248 15.1638 17.3598 15.8987 18.3048 16.1612" stroke="white" stroke-width="1.5" stroke-miterlimit="10" stroke-linecap="round" stroke-linejoin="round"/>
<path d="M2.98438 19.25C2.98438 15.8638 6.35315 13.125 10.5006 13.125C11.4106 13.125 12.2856 13.2562 13.0994 13.5012" stroke="white" stroke-width="1.5" stroke-linecap="round" stroke-linejoin="round"/>
</svg>
